# xmcd
#
# Track frame offsets: 
#        150
#        16909
#        28840
#        36236
#        46162
#        56594
#        68254
#        79909
#        88981
#        95602
#        107659
#        117204
#        124392
#        139586
#        150016
#        162885
#        177414
#        191872
#        203656
#        216634
#
# Disc length: 3032 seconds
#
# Revision: 1
# Processed by: cddbd v1.5.2PL0 Copyright (c) Steve Scherf et al.
# Submitted via: ExactAudioCopy v0.99pb4
#
DISCID=130bd614
DTITLE=Frank Sinatra - 10 CD Set [CD 4)
DYEAR=2005
DGENRE=Jazz
TTITLE0=I Only Have Eyes For You
TTITLE1=The Way You Look Tonight
TTITLE2=I'll Be Around
TTITLE3=She's Funny That Way
TTITLE4=Speak Low
TTITLE5=Long Ago And Far Away
TTITLE6=Some Other Time
TTITLE7=Come Out, Come Out, Wherever You Are
TTITLE8=Put Your Dreams Away
TTITLE9=Let Me Love You Tonight
TTITLE10=Aren't You Glad You're You
TTITLE11=You Brought A New Kind Of Love To Me
TTITLE12=I'll Never Smile Again
TTITLE13=Without A Song
TTITLE14=Oh! What It Seemed To Be 
TTITLE15=Over The Rainbow
TTITLE16=My Romance
TTITLE17=They Say It's Wonderful
TTITLE18=You Are Too Beautiful
TTITLE19=Come Rain Or Come Shine
EXTD=
EXTT0=
EXTT1=
EXTT2=
EXTT3=
EXTT4=
EXTT5=
EXTT6=
EXTT7=
EXTT8=
EXTT9=
EXTT10=
EXTT11=
EXTT12=
EXTT13=
EXTT14=
EXTT15=
EXTT16=
EXTT17=
EXTT18=
EXTT19=
PLAYORDER=
